# This file uses centimeters as units for non-parametric coordinates.

mtllib WallDoor2.mtl
g default
v -3.839555 12.361763 -1.000000
v -2.895571 0.212043 -1.000000
v -3.839555 0.212043 -1.000000
v -2.548682 5.212853 -0.965246
v 5.071747 12.361763 -1.000000
v 3.527637 5.258678 -0.961766
v 2.684587 12.361763 -1.000000
v 5.071747 0.273650 -1.000000
v 3.860396 0.273649 -1.000000
v -1.761415 5.696443 -1.000000
v -2.895571 4.428367 -1.000000
v 2.852434 5.696444 -1.000000
v 3.860396 4.512465 -1.000000
vt 1.000000 0.000000
vt 0.000000 1.000000
vt 1.000000 1.000000
vt 0.000000 0.551609
vt 1.000000 0.000000
vt 0.517076 0.551609
vt 1.000000 0.000000
vt 0.517076 0.551609
vt 1.000000 0.551609
vt 0.086804 0.551609
vt 0.000000 0.656075
vt 0.452617 0.551609
vt 0.517076 0.551609
vn 0.000000 0.000000 0.000000
vn 0.000000 0.000000 0.000000
vn 0.000000 0.000000 0.000000
vn 0.000008 0.000541 1.000000
vn 0.000008 0.000541 1.000000
vn 0.000008 0.000541 1.000000
vn 0.000008 0.000541 1.000000
vn 0.000008 0.000541 1.000000
vn 0.000008 0.000541 1.000000
vn 0.000008 0.000541 1.000000
vn 0.000008 0.000541 1.000000
vn 0.000008 0.000541 1.000000
vn 0.000008 0.000541 1.000000
vn 0.000008 0.000541 1.000000
vn 0.000008 0.000541 1.000000
vn 0.000008 0.000541 1.000000
s off
g pPlane1
usemtl initialShadingGroup
f 5/5/1 1/1/2 7/7/3
f 9/8/4 8/9/5 5/5/6 7/7/7 1/1/8 3/3/9 2/2/10 11/11/11 4/4/12 10/10/13 12/12/14 6/6/15 13/13/16
