# This file uses centimeters as units for non-parametric coordinates.

mtllib WallDoor1.mtl
g default
v -14.630771 17.490410 -1.000000
v -2.895571 0.212043 -1.000000
v -14.630771 0.212043 -1.000000
v -2.548682 6.918496 -0.965246
v 15.702187 17.490410 -1.000000
v 3.527637 6.964321 -0.961766
v 2.684587 17.490410 -1.000000
v 15.702187 0.273650 -1.000000
v 3.860396 0.273649 -1.000000
v -1.761415 7.402086 -1.000000
v -2.895571 6.134010 -1.000000
v 2.852434 7.402087 -1.000000
v 3.860396 6.218108 -1.000000
vt 1.000000 0.000000
vt 1.000000 0.000000
vt 1.000000 0.000000
vt 0.517076 0.551609
vt 1.000000 0.551609
vt 1.000000 1.000000
vt 0.000000 1.000000
vt 0.000000 0.656075
vt 0.000000 0.551609
vt 0.086804 0.551609
vt 0.452617 0.551609
vt 0.517076 0.551609
vt 0.517076 0.551609
vn 0.000000 0.000000 0.000000
vn 0.000000 0.000000 0.000000
vn 0.000000 0.000000 1.000000
vn 0.000001 0.000080 1.000000
vn 0.000001 0.000080 1.000000
vn 0.000001 0.000080 1.000000
vn 0.000001 0.000080 1.000000
vn 0.000001 0.000080 1.000000
vn 0.000001 0.000080 1.000000
vn 0.000001 0.000080 1.000000
vn 0.000001 0.000080 1.000000
vn 0.000001 0.000080 1.000000
vn 0.000001 0.000080 1.000000
vn 0.000001 0.000080 1.000000
vn 0.000001 0.000080 1.000000
vn 0.000001 0.000080 1.000000
s off
g pPlane1
usemtl initialShadingGroup
f 5/1/1 1/2/2 7/3/3
f 9/4/4 8/5/5 5/1/6 7/3/7 1/2/8 3/6/9 2/7/10 11/8/11 4/9/12 10/10/13 12/11/14 6/12/15 13/13/16
