# This file uses centimeters as units for non-parametric coordinates.

mtllib Walldoor2.mtl
g default
v -4.462460 12.361763 -1.000000
v -3.365330 0.212043 -1.000000
v -4.462460 0.212043 -1.000000
v -2.962164 7.533729 -0.965246
v 5.894555 12.361763 -1.000000
v 4.495390 7.579554 -0.961766
v 3.120118 12.361763 -1.000000
v 5.894555 0.273650 -1.000000
v 4.882134 0.273649 -1.000000
v -2.047176 8.017320 -1.000000
v -3.365330 6.749245 -1.000000
v 3.710646 8.017321 -1.000000
v 4.882134 6.833342 -1.000000
vt 1.000000 0.000000
vt 1.000000 0.000000
vt 1.000000 0.000000
vt 0.517076 0.551609
vt 1.000000 0.551609
vt 1.000000 1.000000
vt 0.000000 1.000000
vt 0.000000 0.656075
vt 0.000000 0.551609
vt 0.086804 0.551609
vt 0.452617 0.551609
vt 0.517076 0.551609
vt 0.517076 0.551609
vn 0.000000 0.000000 0.000000
vn 0.000000 0.000000 0.000000
vn 0.000000 0.000000 0.000000
vn 0.000007 0.000541 1.000000
vn 0.000007 0.000541 1.000000
vn 0.000007 0.000541 1.000000
vn 0.000007 0.000541 1.000000
vn 0.000007 0.000541 1.000000
vn 0.000007 0.000541 1.000000
vn 0.000007 0.000541 1.000000
vn 0.000007 0.000541 1.000000
vn 0.000007 0.000541 1.000000
vn 0.000007 0.000541 1.000000
vn 0.000007 0.000541 1.000000
vn 0.000007 0.000541 1.000000
vn 0.000007 0.000541 1.000000
s off
g WallDoor2_pPlane1
usemtl initialShadingGroup
f 5/1/1 1/2/2 7/3/3
f 9/4/4 8/5/5 5/1/6 7/3/7 1/2/8 3/6/9 2/7/10 11/8/11 4/9/12 10/10/13 12/11/14 6/12/15 13/13/16
