# This file uses centimeters as units for non-parametric coordinates.

mtllib Walldoor.mtl
g default
v -11.783795 12.920175 -1.000000
v -3.114284 0.212043 -1.000000
v -11.783795 0.212043 -1.000000
v -2.767395 7.038972 -0.965246
v 12.395947 12.920175 -1.000000
v 3.701385 7.084797 -0.961766
v 2.684587 12.920175 -1.000000
v 12.395947 0.273650 -1.000000
v 4.034143 0.273649 -1.000000
v -1.980128 7.522563 -1.000000
v -3.114284 6.254487 -1.000000
v 3.026181 7.522563 -1.000000
v 4.034143 6.338584 -1.000000
vt 1.000000 0.000000
vt 1.000000 0.000000
vt 1.000000 0.000000
vt 0.517076 0.551609
vt 1.000000 0.551609
vt 1.000000 1.000000
vt 0.000000 1.000000
vt 0.000000 0.656075
vt 0.000000 0.551609
vt 0.086804 0.551609
vt 0.452617 0.551609
vt 0.517076 0.551609
vt 0.517076 0.551609
vn 0.000000 0.000000 0.000000
vn 0.000000 0.000000 0.000000
vn 0.000000 0.000000 -1.000000
vn 0.000002 0.000144 1.000000
vn 0.000002 0.000144 1.000000
vn 0.000002 0.000144 1.000000
vn 0.000002 0.000144 1.000000
vn 0.000002 0.000144 1.000000
vn 0.000002 0.000144 1.000000
vn 0.000002 0.000144 1.000000
vn 0.000002 0.000144 1.000000
vn 0.000002 0.000144 1.000000
vn 0.000002 0.000144 1.000000
vn 0.000002 0.000144 1.000000
vn 0.000002 0.000144 1.000000
vn 0.000002 0.000144 1.000000
s off
g pPlane1
usemtl initialShadingGroup
f 5/1/1 1/2/2 7/3/3
f 9/4/4 8/5/5 5/1/6 7/3/7 1/2/8 3/6/9 2/7/10 11/8/11 4/9/12 10/10/13 12/11/14 6/12/15 13/13/16
